<svg width="17" height="16" viewBox="0 0 17 16" fill="none" xmlns="http://www.w3.org/2000/svg">
<path opacity="0.5" fill-rule="evenodd" clip-rule="evenodd" d="M8.50001 13.9999C7.9884 13.9999 7.48963 13.9537 7.00473 13.8734L3.50006 16.0001V12.4596C1.67275 11.1767 0.5 9.20951 0.5 6.99994C0.5 3.13404 4.08177 -3.05176e-05 8.50001 -3.05176e-05C12.9183 -3.05176e-05 16.5 3.13404 16.5 6.99994C16.5 10.8661 12.9183 13.9999 8.50001 13.9999ZM8.50001 1.00014C4.63402 1.00014 1.50001 3.68641 1.50001 6.99994C1.50001 9.03322 2.68286 10.8268 4.48765 11.9121L4.45611 14.2313L6.80988 12.8165C7.35204 12.932 7.91613 13 8.50001 13C12.366 13 15.5001 10.3138 15.5001 6.99994C15.5001 3.68641 12.366 1.00014 8.50001 1.00014ZM12 6.50002H5.00002C4.72388 6.50002 4.5 6.27605 4.5 6.00005C4.5 5.72379 4.72388 5.5 5.00002 5.5H12C12.2761 5.5 12.5 5.72379 12.5 6.00005C12.5 6.27605 12.2761 6.50002 12 6.50002ZM6.00003 8.50002H11C11.2762 8.50002 11.5001 8.72385 11.5001 8.99999C11.5001 9.27627 11.2762 9.5001 11 9.5001H6.00003C5.72383 9.5001 5.50002 9.27627 5.50002 8.99999C5.50002 8.72385 5.72383 8.50002 6.00003 8.50002Z" fill="white"/>
</svg>
